# xmcd
#
# Track frame offsets:
#	150
#	14519
#	25460
#	38367
#	50706
#	63413
#	78277
#	91294
#	107543
#	119994
#	131565
#
# Disc length: 1970 seconds
#
# Revision: 0
# Processed by: cddbd v1.5.1PL2 Copyright (c) Steve Scherf et al.
# Submitted via: dBpowerAMP V4.0
#
DISCID=9007b00b
DTITLE=Michael Humphrey - It's About Time
DYEAR=2005
DGENRE=Country
TTITLE0=Doing The Right Thing
TTITLE1=Never Leave Your Side
TTITLE2=Freedom (Batallando)
TTITLE3=Other Side
TTITLE4=Torn
TTITLE5=Spinning
TTITLE6=Lies
TTITLE7=From The Ashes
TTITLE8=Looking At Me
TTITLE9=The Open Road
TTITLE10=Still Your Guy
EXTD=
EXTT0=
EXTT1=
EXTT2=
EXTT3=
EXTT4=
EXTT5=
EXTT6=
EXTT7=
EXTT8=
EXTT9=
EXTT10=
PLAYORDER=
